<svg width="20" height="20" viewBox="0 0 20 20" fill="none" xmlns="http://www.w3.org/2000/svg">
  <path
    d="M3.0894 1.66669C2.3049 1.66669 1.66895 2.30265 1.66895 3.08715V6.66669C1.66895 9.14485 3.47184 11.2019 5.83756 11.5979C5.85083 10.2224 6.28063 8.9466 7.00688 7.89054L5.1833 6.06696C4.93922 5.82289 4.93922 5.42715 5.1833 5.18308C5.42737 4.939 5.8231 4.939 6.06718 5.18308L7.81178 6.92768C8.772 5.97623 10.0201 5.31479 11.4138 5.08555C10.7522 3.09902 8.87783 1.66669 6.66895 1.66669H3.0894Z"
    fill="rgb(71, 85, 105)" />
  <path
    d="M7.96124 15.3223L6.0162 17.2662C5.77205 17.5102 5.77193 17.9059 6.01593 18.1501C6.25994 18.3942 6.65566 18.3944 6.89981 18.1503L8.84517 16.2062C9.84567 17.0128 11.1181 17.4957 12.5033 17.4957C15.7243 17.4957 18.3356 14.8846 18.3356 11.6635V7.28963C18.3356 6.48422 17.6827 5.8313 16.8773 5.8313H12.5033C9.28226 5.8313 6.67108 8.4425 6.67108 11.6635C6.67108 13.0491 7.15423 14.3217 7.96124 15.3223ZM13.1498 11.9042L9.73709 15.3169C9.40367 15.0641 9.10592 14.7667 8.85276 14.4335L12.2659 11.0202C12.51 10.7762 12.9058 10.7762 13.1498 11.0202C13.3939 11.2643 13.3939 11.6601 13.1498 11.9042Z"
    fill="rgb(30, 41, 59)" />
</svg>